# xmcd
#
# Track frame offsets:
#	150
#	19375
#	36200
#	54747
#	71574
#	87407
#	108962
#	122557
#	142966
#	162149
#
# Disc length: 2382 seconds
#
# Revision: 1
# Processed by: cddbd v1.4PL0 Copyright (c) Steve Scherf et al.
# Submitted via: audiograbber 1.82.02
#
DISCID=84094c0a
DTITLE=Higher Vision - No Stranger to Danger
DYEAR=1900
DGENRE=
TTITLE0=Pure Faith
TTITLE1=Ge Damo Damo
TTITLE2=Maka Mamo
TTITLE3=Sipo Keriri
TTITLE4=Ro Eteno
TTITLE5=No Stranger to Danger
TTITLE6=Rainbow
TTITLE7=Secret Place
TTITLE8=Buriya Nato
TTITLE9=Live In Your Love
EXTD=
EXTT0=
EXTT1=
EXTT2=
EXTT3=
EXTT4=
EXTT5=
EXTT6=
EXTT7=
EXTT8=
EXTT9=
PLAYORDER=
